<svg xmlns="http://www.w3.org/2000/svg" width="16" height="16" viewBox="0 0 16 16">
    <g fill="none" fill-rule="evenodd">
        <path fill="#000" d="M9.965 4.08a.868.868 0 0 0-.619-.255.868.868 0 0 0-.619.255L4.19 8.617a.876.876 0 0 0 0 1.237l2.063 2.063a.9.9 0 0 0 1.237 0l4.537-4.538a.876.876 0 0 0 0-1.237L9.965 4.08zM5.84 9.442a.29.29 0 0 1-.412 0 .291.291 0 0 1 0-.413L9.14 5.317a.291.291 0 1 1 .413.413L5.84 9.442zm3.918-1.444l-1.65 1.65a.29.29 0 0 1-.412 0 .291.291 0 0 1 0-.412l1.65-1.65a.291.291 0 1 1 .412.412z"/>
        <path stroke="#000" d="M14.915 5.317a.291.291 0 0 0 0-.412l-3.712-3.712a.3.3 0 0 0-.413 0 1.45 1.45 0 0 1-1.031.427c-.39 0-.756-.152-1.032-.427a.3.3 0 0 0-.412 0L1.303 8.204a.29.29 0 0 0 0 .413c.275.275.427.642.427 1.031 0 .39-.152.756-.427 1.032a.29.29 0 0 0 0 .412l3.712 3.712a.291.291 0 0 0 .413 0 1.45 1.45 0 0 1 1.03-.428c.39 0 .757.152 1.032.428a.29.29 0 0 0 .412 0l7.012-7.012a.291.291 0 0 0 0-.413 1.46 1.46 0 0 1 0-2.062zM12.44 7.792l-4.537 4.537c-.275.275-.64.426-1.031.426-.391 0-.757-.151-1.032-.426l-2.062-2.062a1.46 1.46 0 0 1 0-2.062l4.537-4.538c.274-.274.64-.426 1.031-.426.39 0 .757.152 1.031.426L12.44 5.73a1.46 1.46 0 0 1 0 2.062z"/>
    </g>
</svg>
